<?xml version="1.0" encoding="UTF-8"?>
<svg version="1.1" xmlns="http://www.w3.org/2000/svg" width="500" height="500">
<path d="M0 0 C1.19496094 0.26683594 2.38992187 0.53367187 3.62109375 0.80859375 C13.10123697 3.2297427 21.48159593 7.29233987 30 12 C30.99 12.54527344 31.98 13.09054688 33 13.65234375 C40.94196535 18.37365746 47.47273219 24.5285208 54 31 C54.82757813 31.8146875 55.65515625 32.629375 56.5078125 33.46875 C64.43144695 41.75129472 70.00093228 51.75033913 75 62 C76.40185547 61.25556641 76.40185547 61.25556641 77.83203125 60.49609375 C105.14378211 46.25829181 136.47226325 37.63957898 167 47 C181.39806091 51.73360907 196.09520297 59.30046973 207 70 C207 70.66 207 71.32 207 72 C207.639375 72.268125 208.27875 72.53625 208.9375 72.8125 C211 74 211 74 212 77 C212.66 77 213.32 77 214 77 C218 82.41176471 218 82.41176471 218 85 C218.66 85 219.32 85 220 85 C234.7059578 109.66805825 242.22182289 136.59398074 235.3125 165.375 C234.61941828 167.95297883 233.82988222 170.45865576 233 173 C232.63777344 174.14210938 232.27554687 175.28421875 231.90234375 176.4609375 C229.01473707 184.70285216 224.78570402 191.7442552 220 199 C222.54867754 201.08177695 224.95823161 202.97586715 227.8125 204.625 C228.534375 205.07875 229.25625 205.5325 230 206 C230 206.66 230 207.32 230 208 C230.57234375 208.24492187 231.1446875 208.48984375 231.734375 208.7421875 C242.89131139 214.93621081 249.44068054 230.00757226 253 241.75 C256.49228055 258.52664188 254.51635709 276.49791568 245.78515625 291.34765625 C242.54331388 296.16431045 239.0401722 300.82246194 235 305 C234.34 305 233.68 305 233 305 C233 305.66 233 306.32 233 307 C231.11588034 308.54680146 229.25599991 309.93899465 227.25 311.3125 C226.3696106 311.9159021 226.3696106 311.9159021 225.47143555 312.53149414 C212.88303266 320.90968364 199.08766972 324.47109265 184 323 C179.13893587 321.56461729 175.52230843 319.49985794 173 315 C172.67946258 312.25377402 172.53503193 309.80181538 172.5625 307.0625 C172.54251953 306.35931641 172.52253906 305.65613281 172.50195312 304.93164062 C172.50536171 301.29468444 172.87871343 299.1906666 174.84375 296.1015625 C179.43183534 291.62984164 184.16653658 290.91312943 190.3125 290.125 C195.92717134 289.37291931 200.16310496 287.80452649 205.07421875 285.0234375 C207 284 207 284 209 284 C209 283.34 209 282.68 209 282 C210.66666667 280.33333333 212.33333333 278.66666667 214 277 C220.16241757 268.90082262 220.95923476 260.95946216 220 251 C217.61516107 241.70557369 212.51593768 233.85550024 204.2109375 228.94140625 C198.19960448 225.86819667 192.18448748 225.23858671 185.55078125 224.6875 C180.67872011 223.74417463 177.67399462 221.63837771 174.1640625 218.203125 C171.4347397 213.03756104 172.1767593 206.62054263 173 201 C174.7769986 197.5770499 177.03071101 195.41793166 180 193 C180.98419922 192.13955078 180.98419922 192.13955078 181.98828125 191.26171875 C183.17948189 190.22835836 184.38740686 189.21369584 185.6171875 188.2265625 C187.14103109 187.02824461 187.14103109 187.02824461 188 185 C188.66 185 189.32 185 190 185 C190.27070313 184.27167969 190.54140625 183.54335938 190.8203125 182.79296875 C191.96444567 180.08417665 193.295984 177.78738259 194.875 175.3125 C203.73138851 160.68865849 205.85105431 144.78489497 202.75390625 128.04296875 C198.69613993 111.66473062 188.72206559 96.80535607 174.59765625 87.52734375 C156.02173055 76.60525811 138.03142567 75.35683427 117.52294922 80.31542969 C104.54545071 83.83670952 94.19891924 90.63516244 84.16796875 99.50390625 C78.46653047 104.47173289 73.82717142 108.16438324 66 108 C60.05444543 107.04226314 55.63982769 104.92447275 52 100 C50.71798221 97.08055354 49.87669902 94.06196848 49 91 C46.18706166 81.47510841 42.83944406 73.30293826 37.671875 64.828125 C36 62 36 62 35 59 C34.34 59 33.68 59 33 59 C31.51953125 57.4609375 31.51953125 57.4609375 29.8125 55.375 C17.06104392 40.50701125 -0.80783923 32.94770222 -20.09375 31.21875 C-40.20498232 30.09252099 -58.50237645 36.14748506 -74 49 C-74.99193359 49.81017578 -74.99193359 49.81017578 -76.00390625 50.63671875 C-79.49913697 53.40852072 -79.49913697 53.40852072 -82 57 C-82.66 57 -83.32 57 -84 57 C-84.25136719 57.54011719 -84.50273437 58.08023438 -84.76171875 58.63671875 C-86.26066009 61.4974743 -88.03741837 64.11424015 -89.8125 66.8125 C-100.7596823 84.14677982 -103.43963487 105.14686353 -99 125 C-96.67654309 132.68464901 -93.74587458 139.90959455 -90 147 C-88.44582381 151.66252858 -88.45551198 155.48753327 -90.125 160.125 C-92.69321077 164.06292318 -95.74225165 166.87112583 -100 169 C-101.81782423 169.11830692 -103.6395471 169.17902437 -105.4609375 169.2109375 C-106.57339844 169.23929688 -107.68585938 169.26765625 -108.83203125 169.296875 C-111.1548051 169.34809383 -113.47773873 169.39260358 -115.80078125 169.4296875 C-126.97626194 169.73691721 -136.71123762 171.78360053 -146.5625 177.125 C-153.81035889 180.9367863 -153.81035889 180.9367863 -157 182 C-157 182.66 -157 183.32 -157 184 C-157.66 184 -158.32 184 -159 184 C-159 184.66 -159 185.32 -159 186 C-159.66 186 -160.32 186 -161 186 C-161 186.66 -161 187.32 -161 188 C-161.66 188 -162.32 188 -163 188 C-163.27199219 188.57621094 -163.54398438 189.15242187 -163.82421875 189.74609375 C-165.0025679 192.00492253 -166.34078789 193.98501721 -167.8125 196.0625 C-177.88940879 211.09163047 -180.21943112 227.51231542 -176.875 245.125 C-173.3909909 259.26975583 -166.9273596 273.12318629 -155 282 C-155 282.66 -155 283.32 -155 284 C-153.68 284.33 -152.36 284.66 -151 285 C-151 285.66 -151 286.32 -151 287 C-150.443125 287.27328125 -149.88625 287.5465625 -149.3125 287.828125 C-135.94237885 294.60352423 -135.94237885 294.60352423 -133 301 C-131.54404664 307.01794055 -131.78242365 311.60277515 -135 317 C-138.73305455 321.10941155 -142.31384426 322.77886482 -147.8125 323.5 C-156.97069677 323.42505567 -167.1703566 316.6913695 -174 311 C-174 310.34 -174 309.68 -174 309 C-174.82564453 308.6596875 -174.82564453 308.6596875 -175.66796875 308.3125 C-184.18910515 303.51668454 -190.87187291 294.09363492 -196 286 C-196.51046875 285.24589844 -197.0209375 284.49179687 -197.546875 283.71484375 C-204.91739674 272.3361259 -208.70482362 259.25721279 -211 246 C-211.226875 244.72125 -211.45375 243.4425 -211.6875 242.125 C-213.43799655 224.54554524 -211.34144306 207.12607578 -204 191 C-203.55785156 189.99582031 -203.11570313 188.99164063 -202.66015625 187.95703125 C-199.08779449 180.30762504 -194.60756621 173.32533469 -189 167 C-188.34 167 -187.68 167 -187 167 C-186.74734375 166.41605469 -186.4946875 165.83210937 -186.234375 165.23046875 C-178.53078111 151.31036713 -156.42871378 142.36421062 -142.0625 138.125 C-137.91257749 137.07524149 -134.26461514 136.71569232 -130 137 C-130.29003906 136.10474609 -130.29003906 136.10474609 -130.5859375 135.19140625 C-132.3635841 129.26885098 -133.46801479 123.43888291 -134.1875 117.3125 C-134.27112793 116.61261963 -134.35475586 115.91273926 -134.44091797 115.19165039 C-137.71976541 85.1778566 -126.36126024 57.39884563 -107.87890625 34.35546875 C-104.60216873 30.46562026 -104.60216873 30.46562026 -103 29 C-102.34 29 -101.68 29 -101 29 C-101 28.34 -101 27.68 -101 27 C-98.99893831 25.19357045 -97.0001455 23.52528694 -94.875 21.875 C-94.24263428 21.38362549 -93.61026855 20.89225098 -92.95874023 20.38598633 C-66.00596472 -0.12163286 -32.96445476 -7.3834594 0 0 Z " fill="#4578C2" transform="translate(226,96)"/>
<path d="M0 0 C0.81337023 -0.00297112 1.62674046 -0.00594224 2.46475828 -0.0090034 C5.18203159 -0.01765398 7.89926066 -0.01919557 10.61654663 -0.02069092 C12.56838067 -0.02532172 14.52021381 -0.03034673 16.4720459 -0.03573608 C21.76984769 -0.04883796 27.06763683 -0.05530088 32.36545229 -0.05974674 C35.67858709 -0.0626814 38.99171846 -0.06678698 42.30485153 -0.07125092 C52.68029947 -0.08492082 63.05573954 -0.09458962 73.43119586 -0.09845281 C85.39035269 -0.10293064 97.34939506 -0.12046798 109.3085171 -0.1494534 C118.5639531 -0.17110369 127.81935697 -0.1811589 137.07481802 -0.18249393 C142.59722192 -0.18353967 148.11951815 -0.18939823 153.64189529 -0.20731354 C158.8408633 -0.22385183 164.03964337 -0.22592183 169.23862839 -0.21717453 C171.13964086 -0.2164072 173.04066368 -0.22070647 174.94165039 -0.23063278 C192.27911926 -0.31580487 205.48373247 1.70944704 218.95394897 13.57794189 C228.73848395 23.8678764 231.89610148 36.59034898 232.00473022 50.33184814 C232.01280197 51.31354477 232.02087372 52.29524139 232.02919006 53.3066864 C232.042986 55.38186909 232.05372812 57.45707404 232.06161499 59.5322876 C232.07310284 61.63359325 232.09350357 63.73487046 232.12313843 65.83599854 C232.35012616 81.9546635 231.85056202 94.82941268 221.76644897 108.14044189 C221.10644897 109.13044189 220.44644897 110.12044189 219.76644897 111.14044189 C219.10644897 111.14044189 218.44644897 111.14044189 217.76644897 111.14044189 C217.76644897 111.80044189 217.76644897 112.46044189 217.76644897 113.14044189 C217.10644897 113.14044189 216.44644897 113.14044189 215.76644897 113.14044189 C215.76644897 113.80044189 215.76644897 114.46044189 215.76644897 115.14044189 C214.00863647 116.61309814 214.00863647 116.61309814 211.64144897 118.20294189 C210.87574585 118.73016846 210.11004272 119.25739502 209.32113647 119.80059814 C203.85882095 122.66539054 197.7600891 122.2871402 191.73997498 122.28088379 C190.84140587 122.28385491 189.94283676 122.28682603 189.01703829 122.28988719 C186.0117054 122.29854594 183.00641248 122.30008003 180.00106812 122.30157471 C177.84407975 122.30620475 175.68709219 122.31122966 173.53010559 122.31661987 C167.67480603 122.3297249 161.81951792 122.33618473 155.96420598 122.34063053 C152.30604031 122.34356334 148.64787776 122.34766847 144.98971367 122.3521347 C133.5437344 122.36580247 122.09776228 122.37547357 110.65177542 122.3793366 C97.43891206 122.38382059 84.22615198 122.40138739 71.01332003 122.43033719 C60.79831005 122.45194225 50.58332916 122.46204019 40.36829656 122.46337771 C34.26758091 122.46442626 28.16696244 122.47034514 22.06627083 122.48819733 C16.32971546 122.50465836 10.59333057 122.50684302 4.85676003 122.49805832 C2.75207819 122.49728699 0.64738725 122.50164328 -1.45727158 122.51151657 C-4.33174899 122.52421011 -7.2056202 122.51837329 -10.08009338 122.50793457 C-11.32738241 122.52001918 -11.32738241 122.52001918 -12.59986919 122.53234792 C-20.95166943 122.46147722 -26.75819499 119.2942967 -33.23355103 114.14044189 C-33.23355103 113.48044189 -33.23355103 112.82044189 -33.23355103 112.14044189 C-33.82136353 111.91227783 -34.40917603 111.68411377 -35.01480103 111.44903564 C-37.84808323 109.77799772 -38.98138859 107.97852649 -40.73355103 105.20294189 C-41.30073853 104.32766846 -41.86792603 103.45239502 -42.45230103 102.55059814 C-46.97537699 93.89128824 -48.8385175 86.22539515 -48.72964478 76.48028564 C-48.73110001 75.40976456 -48.73255524 74.33924347 -48.73405457 73.23628235 C-48.73240623 70.99003354 -48.72096586 68.74377216 -48.70010376 66.49761963 C-48.67109523 63.08314494 -48.67952994 59.67022203 -48.6925354 56.25567627 C-48.68629796 54.05970528 -48.67790697 51.86373912 -48.66714478 49.66778564 C-48.67008041 48.66021713 -48.67301605 47.65264862 -48.67604065 46.61454773 C-48.50529076 33.62704939 -44.03111398 23.16449571 -35.35855103 13.51544189 C-25.52626909 4.10191131 -13.37930189 -0.01540533 0 0 Z M-11.89360046 37.66349792 C-15.29515219 42.35934151 -15.94048592 45.97760625 -15.79214478 51.70684814 C-15.78981339 52.50396713 -15.78748199 53.30108612 -15.78507996 54.12236023 C-15.77539052 55.79736121 -15.75371483 57.47233182 -15.72061157 59.14703369 C-15.67112027 61.69937098 -15.65912009 64.24977677 -15.6534729 66.80255127 C-15.63938708 68.43733723 -15.62318273 70.0721066 -15.60464478 71.70684814 C-15.59928207 72.46325089 -15.59391937 73.21965363 -15.58839417 73.99897766 C-15.46631463 79.47948353 -14.93565356 84.09791886 -11.35855103 88.39044189 C-6.84419092 92.10815022 -3.12540594 92.4303199 2.61677551 92.40113831 C3.81104938 92.40687663 3.81104938 92.40687663 5.02945 92.41273087 C7.7002321 92.42305866 10.37079913 92.41906916 13.04159546 92.4151001 C14.95523274 92.41944669 16.86886828 92.42462966 18.78250122 92.43058777 C23.98286701 92.4439945 29.1831602 92.44455459 34.38353992 92.44202447 C38.72265843 92.44095593 43.06176218 92.44583512 47.40087754 92.45062989 C57.63610851 92.4617308 67.87130278 92.46215915 78.10653687 92.45611572 C88.67092922 92.45007393 99.23518846 92.46239085 109.7995581 92.48368579 C118.86546791 92.50128933 127.93133531 92.50730513 136.99726158 92.50404805 C142.41382945 92.50223311 147.83030236 92.50489239 153.24685478 92.51876259 C158.33990777 92.53131606 163.4327529 92.52942034 168.52580261 92.5163517 C170.39588554 92.51398098 172.26598298 92.51673827 174.13604927 92.52497482 C176.68732184 92.53540215 179.23789177 92.52737418 181.78913879 92.5146637 C182.90130214 92.52572512 182.90130214 92.52572512 184.03593343 92.53701001 C188.45594879 92.49062777 191.23254243 91.8259267 194.76644897 89.14044189 C198.73301955 84.03494522 199.3635095 78.52493568 199.29769897 72.25762939 C199.30152588 71.43972931 199.30535278 70.62182922 199.30929565 69.77914429 C199.31199941 68.0631384 199.30474664 66.3470902 199.28793335 64.63116455 C199.26644395 62.01483057 199.28781393 59.40122457 199.31332397 56.78497314 C199.3106815 55.10918588 199.30555819 53.43340031 199.29769897 51.75762939 C199.3057959 50.98248993 199.31389282 50.20735046 199.32223511 49.40872192 C199.23303403 44.21233165 198.14557657 41.29191901 194.76644897 37.14044189 C190.20030471 33.12776966 186.01041832 32.99309225 180.15699768 33 C178.98343978 32.99554332 178.98343978 32.99554332 177.78617364 32.9909966 C175.15613423 32.98230272 172.5261403 32.98080077 169.89608765 32.97930908 C168.01377769 32.9746814 166.13146868 32.96965681 164.24916077 32.96426392 C159.12926448 32.95113326 154.00938131 32.94469369 148.88947082 32.94025326 C145.6918131 32.93732367 142.49415898 32.93321908 139.29650307 32.92874908 C129.29481243 32.91507255 119.29313 32.90540659 109.29143065 32.90154719 C97.74025562 32.89706559 86.18919886 32.87951355 74.63805979 32.8505466 C65.71313616 32.8289412 56.78824584 32.81884353 47.86329633 32.81750607 C42.53106824 32.81645725 37.19895131 32.81053292 31.86675072 32.79268646 C26.85087197 32.7762255 21.83518818 32.7740407 16.81929207 32.78282547 C14.97865146 32.7835969 13.13800046 32.77923924 11.29738617 32.76936722 C8.78364174 32.75667595 6.27059075 32.76250898 3.7568512 32.77294922 C3.02931253 32.76489281 2.30177387 32.75683641 1.55218858 32.74853587 C-3.79855992 32.80047309 -7.90762588 34.00646068 -11.89360046 37.66349792 Z " fill="#FD924F" transform="translate(150.23355102539063,274.85955810546875)"/>
<path d="M0 0 C0.95392136 -0.00686325 1.90784271 -0.0137265 2.89067078 -0.02079773 C6.02297123 -0.03899953 9.15476773 -0.03523808 12.28710938 -0.02954102 C14.47611655 -0.03410553 16.6651223 -0.0394119 18.85412598 -0.04542542 C23.43357174 -0.05434319 28.01284297 -0.05194796 32.59228516 -0.04199219 C38.44985532 -0.03049618 44.3068232 -0.05073094 50.16431427 -0.07990932 C54.68202516 -0.09828581 59.19959204 -0.09797607 63.71733093 -0.0922718 C65.87661078 -0.09211881 68.03590052 -0.09814482 70.19514465 -0.11056328 C73.21771692 -0.12550093 76.23918033 -0.11477583 79.26171875 -0.09765625 C80.1461113 -0.10732422 81.03050385 -0.11699219 81.94169617 -0.12695312 C87.68892813 -0.05905724 92.42693097 0.93183053 97.13085938 4.40405273 C98.88152555 6.67219608 99.91223858 8.77183182 101.13085938 11.40405273 C101.62585938 12.39405273 101.62585938 12.39405273 102.13085938 13.40405273 C102.74296166 19.32104152 102.03419322 22.74582195 98.61914062 27.64233398 C94.75779457 32.2131137 90.90353276 33.71341132 85.13085938 34.40405273 C81.93563026 34.52877853 78.7460166 34.51331446 75.54882812 34.48925781 C74.60173981 34.48607544 73.65465149 34.48289307 72.67886353 34.47961426 C69.55862975 34.46706234 66.43853575 34.44618067 63.31835938 34.42358398 C61.71605972 34.41314843 61.71605972 34.41314843 60.08139038 34.40250206 C54.43342969 34.36516859 48.78556446 34.32118473 43.13769531 34.27197266 C37.30701009 34.22253076 31.47646206 34.19640575 25.64561462 34.17554188 C21.15704248 34.15517419 16.66873929 34.11730029 12.18032837 34.07468224 C10.03061193 34.05735002 7.88083132 34.04664905 5.73104858 34.04273415 C2.72450492 34.0356517 -0.28081801 34.00373341 -3.28710938 33.96582031 C-4.17248383 33.96927963 -5.05785828 33.97273895 -5.97006226 33.9763031 C-11.41906814 33.87476304 -14.54052472 33.01746833 -18.86914062 29.40405273 C-23.04208445 24.77997985 -24.36176279 21.02735993 -24.27148438 14.88842773 C-23.52835924 10.2998104 -21.25188469 6.54697539 -17.86914062 3.40405273 C-11.73200988 0.61612673 -6.68989832 -0.03405226 0 0 Z " fill="#FC9350" transform="translate(233.869140625,320.595947265625)"/>
<path d="M0 0 C3.83084349 2.61193874 6.65161815 5.67823629 8.75 9.875 C9.34190706 15.44738216 9.86325885 21.08535696 6.6875 25.9375 C3.44066019 29.67683798 -0.30729704 31.4629055 -5.23046875 32.15234375 C-10.16083893 32.39075623 -13.89353968 31.30456441 -18.25 28.875 C-22.48825732 24.63674268 -23.97070609 20.38864517 -24.625 14.5 C-24.15046939 9.91287078 -23.07780832 6.54716799 -20.25 2.875 C-14.23942433 -1.96873706 -7.12274629 -2.46556602 0 0 Z " fill="#F9914F" transform="translate(172.25,322.125)"/>
<path d="M0 0 C-6.61368006 4.88152576 -12.18512796 5.15142408 -20.20040894 5.12025452 C-21.41478848 5.12153615 -21.41478848 5.12153615 -22.65370095 5.12284368 C-25.35753562 5.12448648 -28.06130779 5.11899681 -30.76513672 5.11352539 C-32.70688373 5.11324323 -34.64863085 5.11340181 -36.59037781 5.1139679 C-41.85639284 5.11425476 -47.12238509 5.10837593 -52.38839483 5.10139394 C-57.89370451 5.09514195 -63.39901471 5.09455514 -68.90432739 5.09336853 C-79.32705179 5.09026067 -89.74976569 5.0820546 -100.17248547 5.07201904 C-112.03938654 5.06084101 -123.9062881 5.05534319 -135.77319312 5.05032361 C-160.18213456 5.03987155 -184.59106669 5.02228263 -209 5 C-206.48145326 2.48145326 -204.94259773 2.76136184 -201.50721443 2.74183738 C-200.73485045 2.74766307 -199.96248647 2.75348875 -199.16671753 2.75949097 C-197.93908855 2.75692769 -197.93908855 2.75692769 -196.68665898 2.75431263 C-193.92887655 2.75100366 -191.17133444 2.76204447 -188.41357422 2.77294922 C-186.44286098 2.77351303 -184.47214732 2.77319736 -182.50143433 2.77206421 C-177.13805093 2.77148852 -171.77475633 2.78327777 -166.41139364 2.79721212 C-160.81130513 2.80968351 -155.21121476 2.81088714 -149.6111145 2.81326294 C-139.00053759 2.8194883 -128.39000172 2.83591336 -117.77944291 2.85596192 C-105.70224389 2.87828812 -93.62504294 2.88930609 -81.54782844 2.89935279 C-56.69852951 2.9202787 -31.84926705 2.95547514 -7 3 C-6.67 2.01 -6.34 1.02 -6 0 C-3.50907189 -1.24546405 -2.58919267 -0.7767578 0 0 Z " fill="#F2C3A0" transform="translate(363,392)"/>
<path d="M0 0 C66.66 0.33 133.32 0.66 202 1 C202.33 1.99 202.66 2.98 203 4 C202.33690543 3.83789661 201.67381086 3.67579323 200.99062252 3.50877762 C197.36259755 2.89156234 193.81743972 2.85519551 190.15003967 2.85955811 C189.36595889 2.85658698 188.58187811 2.85361586 187.7740373 2.8505547 C185.15020996 2.84189224 182.52642838 2.84036155 179.90258789 2.83886719 C178.01998294 2.8342374 176.13737893 2.82921252 174.254776 2.82382202 C169.14326234 2.81071434 164.0317618 2.80425662 158.92023396 2.79981136 C155.72692072 2.79687892 152.53361105 2.79277385 149.34029961 2.78830719 C139.34929454 2.77463857 129.35829765 2.76496795 119.36728388 2.7611053 C107.83310903 2.75662143 96.29905249 2.73905561 84.76491362 2.7101047 C75.84844216 2.68850043 66.93200404 2.67840174 58.01550668 2.67706418 C52.69001524 2.67601555 47.36463512 2.67009505 42.03917122 2.65224457 C37.03147362 2.63578489 32.02397131 2.63359816 27.01625633 2.64238358 C25.17883914 2.64315499 23.34141153 2.63879751 21.50402069 2.62892532 C18.99476193 2.61623405 16.48619785 2.62206699 13.97694397 2.63250732 C13.25076954 2.62445092 12.52459512 2.61639452 11.77641541 2.60809398 C5.89115198 2.66532345 1.93955185 4.21357067 -2.375 8.1875 C-3.179375 9.0846875 -3.179375 9.0846875 -4 10 C-4 8.35 -4 6.7 -4 5 C-2.68 4.67 -1.36 4.34 0 4 C0 2.68 0 1.36 0 0 Z " fill="#E09F6C" transform="translate(140,306)"/>
<path d="M0 0 C0.66 0 1.32 0 2 0 C4.74668623 5.40753851 6.81992064 9.79202946 6 16 C3.95682161 21.67549553 0.40252559 25.29873721 -5 28 C-9.28677949 28.24417325 -13.58205152 28.18520431 -17.875 28.1875 C-19.67130859 28.20586914 -19.67130859 28.20586914 -21.50390625 28.22460938 C-22.65503906 28.22654297 -23.80617188 28.22847656 -24.9921875 28.23046875 C-26.04776855 28.23457764 -27.10334961 28.23868652 -28.19091797 28.24291992 C-30.98484466 28.00131058 -32.62497794 27.44093238 -35 26 C-34.1121582 25.98541748 -33.22431641 25.97083496 -32.30957031 25.95581055 C-29.00672038 25.89465466 -25.70469085 25.82048622 -22.40234375 25.73754883 C-20.97472086 25.70435206 -19.54696837 25.67630369 -18.11914062 25.65356445 C-16.06324185 25.61991987 -14.00852488 25.56760438 -11.953125 25.51171875 C-10.09929199 25.47244263 -10.09929199 25.47244263 -8.20800781 25.43237305 C-4.79986576 24.97302605 -3.54028035 24.20605225 -1 22 C-0.34 22 0.32 22 1 22 C1.66 17.38 2.32 12.76 3 8 C0.525 7.505 0.525 7.505 -2 7 C-1.34 4.69 -0.68 2.38 0 0 Z " fill="#6685B9" transform="translate(131,237)"/>
<path d="M0 0 C1.32 0 2.64 0 4 0 C4 0.99 4 1.98 4 3 C5.65 2.67 7.3 2.34 9 2 C8.83483887 2.80179687 8.66967773 3.60359375 8.49951172 4.4296875 C7.90101207 8.70752665 7.93169269 12.81473548 8.0078125 17.125 C8.02532394 18.901036 8.04223268 20.67707803 8.05859375 22.453125 C8.08956057 25.23129147 8.12515233 28.00915269 8.17138672 30.78710938 C8.21383968 33.48311117 8.23719142 36.17875455 8.2578125 38.875 C8.27643341 39.70016113 8.29505432 40.52532227 8.3142395 41.37548828 C8.34001056 47.20230141 7.13243029 51.09214051 3.625 55.875 C1.37893879 57.42996545 -0.33478776 57.21609829 -3 57 C-1.625 55.5 -1.625 55.5 0 54 C0.66 54 1.32 54 2 54 C4.3003809 48.3257271 5.18160936 43.71919538 5.23828125 37.60546875 C5.246353 36.78049393 5.25442474 35.9555191 5.26274109 35.10554504 C5.27656573 33.35969128 5.28729513 31.61381068 5.29516602 29.86791992 C5.31236972 27.20764533 5.35626773 24.54861692 5.40039062 21.88867188 C5.41051904 20.19011328 5.41903468 18.49154415 5.42578125 16.79296875 C5.44328934 16.00214401 5.46079742 15.21131927 5.47883606 14.39653015 C5.45819793 9.1011277 4.37877111 6.2742123 1 2 C0.67 1.34 0.34 0.68 0 0 Z " fill="#E38D55" transform="translate(343,310)"/>
<path d="M0 0 C1.98 0.66 3.96 1.32 6 2 C6 3.32 6 4.64 6 6 C11.3425221 7.09451049 16.52476817 7.17147083 21.95263672 7.20532227 C22.9386235 7.21522186 23.92461029 7.22512146 24.94047546 7.23532104 C28.18685537 7.26681018 31.4332499 7.2916436 34.6796875 7.31640625 C36.93556083 7.33698665 39.1914304 7.3579834 41.44729614 7.37937927 C47.37541653 7.43448777 53.30357108 7.48394645 59.23175049 7.53222656 C65.28473946 7.58252363 71.33767903 7.63816682 77.390625 7.69335938 C89.26037443 7.80080366 101.13016682 7.90227899 113 8 C113 8.33 113 8.66 113 9 C107.75922954 10.0796933 102.73939275 10.12524514 97.41796875 10.08520508 C96.47088043 10.08202271 95.52379211 10.07884033 94.54800415 10.07556152 C91.42777038 10.0630096 88.30767638 10.04212793 85.1875 10.01953125 C83.58520035 10.0090957 83.58520035 10.0090957 81.95053101 9.99844933 C76.30257031 9.96111585 70.65470508 9.91713199 65.00683594 9.86791992 C59.17615072 9.81847802 53.34560269 9.79235302 47.51475525 9.77148914 C43.02618311 9.75112145 38.53787991 9.71324756 34.04946899 9.6706295 C31.89975256 9.65329729 29.74997195 9.64259631 27.60018921 9.63868141 C24.59364554 9.63159897 21.58832262 9.59968068 18.58203125 9.56176758 C17.6966568 9.5652269 16.81128235 9.56868622 15.89907837 9.57225037 C9.46510794 9.45235588 6.02490129 7.62158112 1.125 3.375 C0 2 0 2 0 0 Z " fill="#E4955F" transform="translate(212,345)"/>
<path d="M0 0 C0.12375 0.61875 0.2475 1.2375 0.375 1.875 C0.87197356 4.19120832 0.87197356 4.19120832 3 6 C2.01 7.485 2.01 7.485 1 9 C1 8.34 1 7.68 1 7 C-1.95821995 9.44374691 -2.43206478 11.26278209 -3 15 C-3.10977578 16.83955155 -3.17511609 18.68208169 -3.20532227 20.5246582 C-3.22526749 21.60540115 -3.24521271 22.6861441 -3.26576233 23.79963684 C-3.28247482 24.9550145 -3.29918732 26.11039215 -3.31640625 27.30078125 C-3.33718735 28.49229294 -3.35796844 29.68380463 -3.37937927 30.91142273 C-3.44468179 34.71172403 -3.50367018 38.51209352 -3.5625 42.3125 C-3.60570356 44.89128305 -3.64931844 47.47005924 -3.69335938 50.04882812 C-3.80034345 56.36581366 -3.90214555 62.6828668 -4 69 C-6.14177971 65.78733043 -6.25464488 64.92662515 -6.2746582 61.22827148 C-6.28419022 60.2597374 -6.29372223 59.29120331 -6.30354309 58.2933197 C-6.30263168 57.24648514 -6.30172028 56.19965057 -6.30078125 55.12109375 C-6.30506638 54.03925308 -6.3093515 52.95741241 -6.31376648 51.8427887 C-6.31951514 49.54876403 -6.32000612 47.25472114 -6.31567383 44.96069336 C-6.31253416 41.47542474 -6.33589619 37.99102174 -6.36132812 34.50585938 C-6.36360329 32.27343856 -6.36430361 30.04101549 -6.36328125 27.80859375 C-6.372491 26.7759288 -6.38170074 25.74326385 -6.39118958 24.67930603 C-6.33427642 15.62809009 -4.39450212 7.95195622 0 0 Z " fill="#EBA370" transform="translate(108,297)"/>
<path d="M0 0 C0.33 0 0.66 0 1 0 C3.19148936 19.34042553 3.19148936 19.34042553 4 29 C4.66 29 5.32 29 6 29 C6.02578125 29.556875 6.0515625 30.11375 6.078125 30.6875 C6.3937642 34.93428199 6.91471517 38.25253161 9 42 C11.35046835 46.22403008 11.77885659 50.22330233 12 55 C8.77913543 53.38956772 8.24758351 50.03503694 7.0625 46.8125 C6.66381714 45.73742187 6.66381714 45.73742187 6.25708008 44.640625 C3.82197894 37.86624979 2.22900223 31.0988636 1 24 C0.773125 22.72125 0.54625 21.4425 0.3125 20.125 C0.05236136 17.39840967 -0.04354874 14.69910762 -0.0546875 11.9609375 C-0.05766846 11.22987793 -0.06064941 10.49881836 -0.0637207 9.74560547 C-0.06195462 6.49672534 -0.03548322 3.24868637 0 0 Z " fill="#6B8ABF" transform="translate(14,318)"/>
<path d="M0 0 C3 1 3 1 4 3 C4.99 3 5.98 3 7 3 C7 4.32 7 5.64 7 7 C10.96 7.33 14.92 7.66 19 8 C19 7.34 19 6.68 19 6 C19.763125 5.731875 20.52625 5.46375 21.3125 5.1875 C23.87380884 4.05575888 25.19692938 3.08776599 27 1 C27.99 1.33 28.98 1.66 30 2 C25.33746241 6.87091916 21.31485827 10.02220037 14.52734375 10.984375 C9.00917994 11.01849039 4.60934754 9.37383326 0.4375 5.8125 C-0.036875 5.214375 -0.51125 4.61625 -1 4 C-0.34 4 0.32 4 1 4 C0.67 2.68 0.34 1.36 0 0 Z " fill="#6382B5" transform="translate(280,193)"/>
<path d="M0 0 C4.43911849 4.43911849 3.16102664 12.4400119 3.16796875 18.3671875 C3.17129715 19.36074249 3.17462555 20.35429749 3.17805481 21.37796021 C3.18310403 23.47413675 3.18546376 25.57032129 3.18530273 27.66650391 C3.18748783 30.85723232 3.20566125 34.04761397 3.22460938 37.23828125 C3.22754407 39.28124883 3.22952836 41.32421803 3.23046875 43.3671875 C3.23765427 44.31326874 3.24483978 45.25934998 3.25224304 46.23410034 C3.23312272 51.83344355 2.58822613 56.62513119 1 62 C0.67 62 0.34 62 0 62 C-0.02746229 60.31259486 -0.04660111 58.6250537 -0.0625 56.9375 C-0.07410156 55.99777344 -0.08570313 55.05804688 -0.09765625 54.08984375 C0 51 0 51 0.49780273 47.74487305 C0.9854648 44.10838864 1.12930599 40.65849713 1.1328125 36.9921875 C1.13410156 35.67476563 1.13539063 34.35734375 1.13671875 33 C1.13462402 32.32066406 1.1325293 31.64132812 1.13037109 30.94140625 C1.12506749 28.90096411 1.13030849 26.86074744 1.13671875 24.8203125 C1.14049672 16.50499251 0.77652005 8.27993245 0 0 Z " fill="#E9A372" transform="translate(379,307)"/>
<path d="M0 0 C4.84146109 1.46710942 8.55948972 4.3512744 12 8 C12 8.66 12 9.32 12 10 C12.639375 10.268125 13.27875 10.53625 13.9375 10.8125 C16 12 16 12 17 15 C17.66 15 18.32 15 19 15 C23 20.41176471 23 20.41176471 23 23 C23.66 23 24.32 23 25 23 C24.67 23.66 24.34 24.32 24 25 C17.42857143 20 17.42857143 20 16 15 C15.34 15 14.68 15 14 15 C14 14.34 14 13.68 14 13 C13.01 12.67 12.02 12.34 11 12 C11 11.01 11 10.02 11 9 C10.21625 9.20625 9.4325 9.4125 8.625 9.625 C7.75875 9.74875 6.8925 9.8725 6 10 C3.05114309 7.05114309 1.3157194 3.9471582 0 0 Z " fill="#829DC6" transform="translate(421,158)"/>
<path d="M0 0 C2.4375 0.375 2.4375 0.375 5 1 C5.33 1.66 5.66 2.32 6 3 C9.02934491 3.65772428 9.02934491 3.65772428 12 4 C12 4.66 12 5.32 12 6 C13.32 6 14.64 6 16 6 C16.33 6.66 16.66 7.32 17 8 C19.58605332 8.4683265 19.58605332 8.4683265 22.5625 8.625 C23.57441406 8.69976562 24.58632812 8.77453125 25.62890625 8.8515625 C26.80259766 8.92503906 26.80259766 8.92503906 28 9 C28 8.34 28 7.68 28 7 C29.98 6.67 31.96 6.34 34 6 C30.46003107 9.78410472 28.40357533 10.81592455 23.1875 11.5 C15.58801095 11.45000336 7.05797192 6.82578342 1.58203125 1.765625 C1.05996094 1.18296875 0.53789063 0.6003125 0 0 Z " fill="#688BBB" transform="translate(55,408)"/>
<path d="M0 0 C0.66 0 1.32 0 2 0 C4.77655866 5.46634987 6.62803941 9.71960585 6 16 C5.67 16.99 5.34 17.98 5 19 C4.01 19 3.02 19 2 19 C1.85714286 11.57142857 1.85714286 11.57142857 3 8 C1.35 7.67 -0.3 7.34 -2 7 C-1.34 4.69 -0.68 2.38 0 0 Z " fill="#587FBA" transform="translate(131,237)"/>
<path d="M0 0 C0 0.99 0 1.98 0 3 C-1.64453125 4.46484375 -1.64453125 4.46484375 -3.8125 5.9375 C-6.20420934 7.57118125 -7.89488688 8.85926382 -9.63671875 11.19140625 C-10.08660156 11.78824219 -10.53648438 12.38507813 -11 13 C-11.66 13 -12.32 13 -13 13 C-13.33 13.99 -13.66 14.98 -14 16 C-15.32 15.67 -16.64 15.34 -18 15 C-5.15533981 0 -5.15533981 0 0 0 Z " fill="#EEA672" transform="translate(127,281)"/>
<path d="M0 0 C1.48034764 0.47550561 2.95925021 0.95551216 4.4375 1.4375 C5.26121094 1.70433594 6.08492188 1.97117187 6.93359375 2.24609375 C9 3 9 3 10 4 C11.63256758 4.15714654 13.27135338 4.25085414 14.91015625 4.31640625 C15.89951172 4.35830078 16.88886719 4.40019531 17.90820312 4.44335938 C18.94912109 4.48267578 19.99003906 4.52199219 21.0625 4.5625 C22.10728516 4.60568359 23.15207031 4.64886719 24.22851562 4.69335938 C26.81886884 4.79981225 29.40932186 4.9018276 32 5 C32.495 5.99 32.495 5.99 33 7 C29.47932649 7.08782542 25.95893856 7.14066643 22.4375 7.1875 C20.9515332 7.22520508 20.9515332 7.22520508 19.43554688 7.26367188 C12.24781521 7.3353104 7.09817178 6.78041057 1.5625 1.8125 C0.7890625 0.9153125 0.7890625 0.9153125 0 0 Z " fill="#F1BE9B" transform="translate(120,390)"/>
<path d="M0 0 C-3.47453932 3.11726022 -7.24916012 4.12947567 -11.6875 5.1875 C-12.39777344 5.3618457 -13.10804688 5.53619141 -13.83984375 5.71582031 C-19.00176849 6.91917047 -23.68923337 7.37934047 -29 7 C-29 6.67 -29 6.34 -29 6 C-28.23816406 5.89042969 -27.47632813 5.78085937 -26.69140625 5.66796875 C-19.09545349 4.50154904 -12.17371941 2.81466061 -5.125 -0.25 C-3 -1 -3 -1 0 0 Z " fill="#7190BB" transform="translate(444,412)"/>
<path d="M0 0 C0.99 0 1.98 0 3 0 C1.9730655 3.30901116 0.96077893 4.0219638 -2.125 5.75 C-7.56129522 7.80270898 -12.54399144 7.78681529 -17.9375 5.625 C-21 4 -21 4 -22 2 C-20.68 1.67 -19.36 1.34 -18 1 C-17.67 2.32 -17.34 3.64 -17 5 C-9.01720424 5.48217574 -9.01720424 5.48217574 -2 2 C-1.34 2 -0.68 2 0 2 C0 1.34 0 0.68 0 0 Z " fill="#E8A574" transform="translate(175,347)"/>
<path d="M0 0 C7.42851417 3.16625194 12.638599 6.96467988 18 13 C17.01 13.33 16.02 13.66 15 14 C14.34 13.67 13.68 13.34 13 13 C13 12.01 13 11.02 13 10 C12.01 10 11.02 10 10 10 C8.3125 8.625 8.3125 8.625 7 7 C7 6.34 7 5.68 7 5 C4.69 5 2.38 5 0 5 C0 3.35 0 1.7 0 0 Z " fill="#EEA370" transform="translate(354,279)"/>
<path d="M0 0 C0.99 0 1.98 0 3 0 C3.50636607 1.74816858 4.00484619 3.49862263 4.5 5.25 C4.7784375 6.22453125 5.056875 7.1990625 5.34375 8.203125 C6 11 6 11 6 15 C4.68 14.67 3.36 14.34 2 14 C2.33 12.02 2.66 10.04 3 8 C2.01 8 1.02 8 0 8 C0 5.36 0 2.72 0 0 Z " fill="#4775B1" transform="translate(123,217)"/>
<path d="M0 0 C2.43998537 2.43998537 2.67696676 4.39164754 3.046875 7.7578125 C2.96700061 11.57847102 1.54708993 14.53451855 0 18 C-0.99 18 -1.98 18 -3 18 C-2.67 15.36 -2.34 12.72 -2 10 C-1.67 10 -1.34 10 -1 10 C-0.67 6.7 -0.34 3.4 0 0 Z " fill="#5382B0" transform="translate(91,395)"/>
<path d="M0 0 C1.72648016 2.58972025 3.3421265 5.20386575 4.9375 7.875 C5.44152344 8.71804688 5.94554687 9.56109375 6.46484375 10.4296875 C6.97144531 11.27789062 7.47804688 12.12609375 8 13 C8.99966047 14.66687034 9.99956086 16.3335969 11 18 C8.625 17.375 8.625 17.375 6 16 C4.6875 12.875 4.6875 12.875 4 10 C2.35 10.33 0.7 10.66 -1 11 C-0.835 9.9275 -0.67 8.855 -0.5 7.75 C0.08810915 3.96971248 0.08810915 3.96971248 0 0 Z " fill="#5E82B9" transform="translate(52,353)"/>
<path d="M0 0 C0.33 0 0.66 0 1 0 C1 5.61 1 11.22 1 17 C1.66 17 2.32 17 3 17 C2.67 18.32 2.34 19.64 2 21 C-0.76252896 15.56127112 -2.72070468 11.24610727 -2 5 C-1 2.0625 -1 2.0625 0 0 Z " fill="#EDA97F" transform="translate(150,328)"/>
<path d="M0 0 C4.8245905 4.25699162 8.05863995 9.28911194 11 15 C11 15.66 11 16.32 11 17 C10.01 16.67 9.02 16.34 8 16 C6.8125 12.9375 6.8125 12.9375 6 10 C4.68 10.33 3.36 10.66 2 11 C2.04125 10.113125 2.0825 9.22625 2.125 8.3125 C2.00102754 5.02722987 1.38612096 2.94550705 0 0 Z " fill="#5E84BC" transform="translate(463,310)"/>
<path d="M0 0 C1.32 0.99 2.64 1.98 4 3 C3.625 5.9375 3.625 5.9375 3 9 C2.01 9.495 2.01 9.495 1 10 C0.34786708 12.02463255 0.34786708 12.02463255 0 14 C-0.66 14 -1.32 14 -2 14 C-1.85795259 12.41632253 -1.71119847 10.83306682 -1.5625 9.25 C-1.48128906 8.36828125 -1.40007813 7.4865625 -1.31640625 6.578125 C-1.03761535 4.30649548 -0.61209423 2.20148177 0 0 Z M5 1 C5.33 1.66 5.66 2.32 6 3 C5.34 2.67 4.68 2.34 4 2 C4.33 1.67 4.66 1.34 5 1 Z " fill="#6287BF" transform="translate(17,300)"/>
<path d="M0 0 C1.23556641 0.01740234 1.23556641 0.01740234 2.49609375 0.03515625 C3.32238281 0.04417969 4.14867187 0.05320312 5 0.0625 C5.63808594 0.07410156 6.27617187 0.08570313 6.93359375 0.09765625 C3.55190944 3.77772447 0.50837619 6.07624075 -4.06640625 8.09765625 C-3.05416559 0.14433675 -3.05416559 0.14433675 0 0 Z " fill="#5A81BE" transform="translate(452.06640625,401.90234375)"/>
<path d="M0 0 C0.99 0 1.98 0 3 0 C3 0.99 3 1.98 3 3 C2.34 3 1.68 3 1 3 C1 3.66 1 4.32 1 5 C0.34 5 -0.32 5 -1 5 C-1.2475 5.53625 -1.495 6.0725 -1.75 6.625 C-3.29696975 9.56424252 -5.13014369 12.25754408 -7 15 C-7.95651196 12.41741772 -8.03620881 11.1349601 -7.3125 8.4375 C-5.86354296 5.74657978 -4.61117996 4.5503881 -2 3 C-1.34 3 -0.68 3 0 3 C0 2.01 0 1.02 0 0 Z " fill="#6587B7" transform="translate(64,279)"/>
<path d="M0 0 C1.34345985 0.73170581 2.67460584 1.48605753 4 2.25 C4.7425 2.66765625 5.485 3.0853125 6.25 3.515625 C6.8275 4.00546875 7.405 4.4953125 8 5 C8 6.32 8 7.64 8 9 C4.98968256 9.93423645 4.13349732 10.04449911 1 9 C1.33 7.02 1.66 5.04 2 3 C1.34 3 0.68 3 0 3 C0 2.01 0 1.02 0 0 Z " fill="#4275BE" transform="translate(259,110)"/>
<path d="M0 0 C1.32 0 2.64 0 4 0 C4 0.99 4 1.98 4 3 C5.65 2.67 7.3 2.34 9 2 C8.88601335 3.62580966 8.75844341 5.25067157 8.625 6.875 C8.55539062 7.77992188 8.48578125 8.68484375 8.4140625 9.6171875 C8 12 8 12 6 14 C5.7525 12.80375 5.505 11.6075 5.25 10.375 C4.22617481 6.20550902 2.56321852 3.4176247 0 0 Z " fill="#EF9F6C" transform="translate(343,310)"/>
<path d="M0 0 C0.33 1.32 0.66 2.64 1 4 C0.4225 4.2475 -0.155 4.495 -0.75 4.75 C-3.32546462 6.18081368 -4.95127149 7.88918881 -7 10 C-8.65191491 11.35156675 -10.31522656 12.68962066 -12 14 C-12.33 13.34 -12.66 12.68 -13 12 C-12.34 12 -11.68 12 -11 12 C-10.76539063 11.42765625 -10.53078125 10.8553125 -10.2890625 10.265625 C-8.70593415 7.48315699 -6.8008475 5.82929786 -4.375 3.75 C-3.55773438 3.04359375 -2.74046875 2.3371875 -1.8984375 1.609375 C-1.27195312 1.07828125 -0.64546875 0.5471875 0 0 Z " fill="#7196C3" transform="translate(50,251)"/>
<path d="M0 0 C0.66 0.33 1.32 0.66 2 1 C1.34 2.98 0.68 4.96 0 7 C-0.66 6.67 -1.32 6.34 -2 6 C-3.87824891 7.87824891 -3.39102397 11.03935276 -3.5625 13.5625 C-3.64628906 14.76003906 -3.73007812 15.95757812 -3.81640625 17.19140625 C-3.87699219 18.11824219 -3.93757813 19.04507812 -4 20 C-4.33 20 -4.66 20 -5 20 C-5.13526616 17.4149133 -5.23417653 14.83691248 -5.3125 12.25 C-5.35439453 11.52039063 -5.39628906 10.79078125 -5.43945312 10.0390625 C-5.48828125 7.890625 -5.48828125 7.890625 -5 4 C-2.48046875 1.484375 -2.48046875 1.484375 0 0 Z " fill="#5E80B3" transform="translate(404,391)"/>
<path d="M0 0 C0.33 0 0.66 0 1 0 C1.22262303 6.7281627 0.95021536 12.53991163 -1 19 C-1.33 19 -1.66 19 -2 19 C-2.0991667 12.90675749 -2.17328971 6.99681407 -1 1 C-0.67 0.67 -0.34 0.34 0 0 Z " fill="#EFA978" transform="translate(381,350)"/>
<path d="M0 0 C3 1 3 1 4 3 C4.99 3 5.98 3 7 3 C7 4.65 7 6.3 7 8 C3 8 3 8 0.75 6 C0.1725 5.34 -0.405 4.68 -1 4 C-0.34 4 0.32 4 1 4 C0.67 2.68 0.34 1.36 0 0 Z " fill="#5C87C1" transform="translate(280,193)"/>
<path d="M0 0 C0.99 0.33 1.98 0.66 3 1 C6.32097273 1.26961505 9.64159564 1.44499436 12.96875 1.62109375 C16 2 16 2 19 4 C13.39 4 7.78 4 2 4 C1.34 2.68 0.68 1.36 0 0 Z " fill="#EFBC96" transform="translate(142,365)"/>
<path d="M0 0 C0.66 0 1.32 0 2 0 C1.89300781 1.02480469 1.78601563 2.04960937 1.67578125 3.10546875 C1.55379665 4.46606626 1.43275247 5.82674831 1.3125 7.1875 C1.23966797 7.86103516 1.16683594 8.53457031 1.09179688 9.22851562 C0.71340047 13.7915311 1.2361517 16.34092063 4 20 C3.01 20 2.02 20 1 20 C-1.43044139 16.35433792 -1.26310692 13.64363257 -1.1875 9.4375 C-1.1865332 8.40979492 -1.1865332 8.40979492 -1.18554688 7.36132812 C-1.14067963 2.28135927 -1.14067963 2.28135927 0 0 Z " fill="#6784B6" transform="translate(400,295)"/>
<path d="M0 0 C3.9126984 1.3042328 6.37310241 2.78934739 9 6 C9 6.99 9 7.98 9 9 C8.01 9.33 7.02 9.66 6 10 C3.05114309 7.05114309 1.3157194 3.9471582 0 0 Z " fill="#6586BD" transform="translate(421,158)"/>
<path d="M0 0 C0.99 0.33 1.98 0.66 3 1 C2.67 2.32 2.34 3.64 2 5 C1.01 5 0.02 5 -1 5 C-1.0825 5.763125 -1.165 6.52625 -1.25 7.3125 C-2.14615794 10.52373261 -3.21611025 11.29374499 -6 13 C-6.66 12.67 -7.32 12.34 -8 12 C-7.67 11.34 -7.34 10.68 -7 10 C-6.34 10 -5.68 10 -5 10 C-4.731875 9.278125 -4.46375 8.55625 -4.1875 7.8125 C-3.01017502 5.02409874 -1.60854116 2.55904276 0 0 Z " fill="#6D8CBB" transform="translate(421,271)"/>
<path d="M0 0 C0.12375 0.61875 0.2475 1.2375 0.375 1.875 C0.87197356 4.19120832 0.87197356 4.19120832 3 6 C2.01 7.485 2.01 7.485 1 9 C1 8.34 1 7.68 1 7 C-2.0916909 9.52956528 -2.90931332 12.22454612 -4 16 C-5.06340773 12.80263986 -4.96582104 11.1018975 -3.6875 8 C-3.40648438 7.3090625 -3.12546875 6.618125 -2.8359375 5.90625 C-1.95601739 3.8997032 -1.04383494 1.92707989 0 0 Z " fill="#EEAB7F" transform="translate(108,297)"/>
<path d="M0 0 C1.98 0.66 3.96 1.32 6 2 C6 3.32 6 4.64 6 6 C7.4540625 6.185625 7.4540625 6.185625 8.9375 6.375 C10.4534375 6.684375 10.4534375 6.684375 12 7 C12.33 7.66 12.66 8.32 13 9 C7.72785482 8.74282219 5.12870062 6.82766483 1.3203125 3.47265625 C0 2 0 2 0 0 Z " fill="#EAA072" transform="translate(212,345)"/>
<path d="M0 0 C0.33 0.66 0.66 1.32 1 2 C0.360625 2.28875 -0.27875 2.5775 -0.9375 2.875 C-3.15206079 3.82823451 -3.15206079 3.82823451 -4 6 C-4.66 5.67 -5.32 5.34 -6 5 C-5.67 4.34 -5.34 3.68 -5 3 C-5.99 3 -6.98 3 -8 3 C-8 3.66 -8 4.32 -8 5 C-8.66 5 -9.32 5 -10 5 C-10 4.34 -10 3.68 -10 3 C-10.99 2.67 -11.98 2.34 -13 2 C-8.71 1.34 -4.42 0.68 0 0 Z " fill="#5D85BD" transform="translate(98,232)"/>
<path d="M0 0 C0.33 0 0.66 0 1 0 C1.48461538 6.3 1.48461538 6.3 -0.6875 9.4375 C-3.38410809 11.25953249 -4.81126451 11.35430394 -8 11 C-6.625 9.5 -6.625 9.5 -5 8 C-4.34 8 -3.68 8 -3 8 C-1.92474806 5.34771188 -0.90543849 2.71631546 0 0 Z " fill="#EDA475" transform="translate(348,356)"/>
<path d="M0 0 C4.57590769 -0.31199371 6.50502897 0.08752415 10 3 C12.14733927 3.70514846 12.14733927 3.70514846 14 4 C13.01 5.485 13.01 5.485 12 7 C8 5 4 3 0 1 C0 0.67 0 0.34 0 0 Z " fill="#6A8DBD" transform="translate(425,322)"/>
<path d="M0 0 C1.65 0.33 3.3 0.66 5 1 C4.01 1.495 4.01 1.495 3 2 C3 2.66 3 3.32 3 4 C-1.31818182 8.65909091 -1.31818182 8.65909091 -4 10 C-4 8.35 -4 6.7 -4 5 C-2.68 4.67 -1.36 4.34 0 4 C0 2.68 0 1.36 0 0 Z " fill="#EEA26C" transform="translate(140,306)"/>
<path d="M0 0 C0.66 0.99 1.32 1.98 2 3 C0.68 5.31 -0.64 7.62 -2 10 C-2.66 10 -3.32 10 -4 10 C-4.8125 7.8125 -4.8125 7.8125 -5 5 C-2.5625 2.1875 -2.5625 2.1875 0 0 Z " fill="#5479BA" transform="translate(406,289)"/>
<path d="M0 0 C5.28 0 10.56 0 16 0 C16 0.66 16 1.32 16 2 C16.99 2.33 17.98 2.66 19 3 C12.64780958 2.45118943 6.32126362 1.83488387 0 1 C0 0.67 0 0.34 0 0 Z " fill="#6C8CBD" transform="translate(362,171)"/>
<path d="M0 0 C0.66 0.33 1.32 0.66 2 1 C-1.96 6.94 -1.96 6.94 -6 13 C-7 9 -7 9 -5.75 6.3125 C-4 4 -4 4 -1 3 C-0.67 2.01 -0.34 1.02 0 0 Z " fill="#5475AA" transform="translate(141,152)"/>
<path d="M0 0 C0 0.66 0 1.32 0 2 C-5.36095333 3.12862175 -10.55306686 3.09688221 -16 3 C-16 2.67 -16 2.34 -16 2 C-10.54538831 0.61470179 -5.63281599 -0.2396943 0 0 Z " fill="#7697BF" transform="translate(352,141)"/>
<path d="M0 0 C0.66 0.33 1.32 0.66 2 1 C2.73075648 3.3140622 3.40138258 5.64828869 4 8 C3.01 8 2.02 8 1 8 C1 7.34 1 6.68 1 6 C0.01 6.33 -0.98 6.66 -2 7 C-2 3 -2 3 0 0 Z " fill="#F4A14F" transform="translate(134,354)"/>
<path d="M0 0 C0.66 0 1.32 0 2 0 C2.33 2.31 2.66 4.62 3 7 C2.34 7 1.68 7 1 7 C0.67 7.99 0.34 8.98 0 10 C-0.66 9.67 -1.32 9.34 -2 9 C-1.41196203 5.97580475 -0.77321882 2.98241547 0 0 Z " fill="#577FBA" transform="translate(427,258)"/>
<path d="M0 0 C0.66 0.99 1.32 1.98 2 3 C-0.64 4.98 -3.28 6.96 -6 9 C-6.66 8.67 -7.32 8.34 -8 8 C-7.67 7.34 -7.34 6.68 -7 6 C-6.34 6 -5.68 6 -5 6 C-5 5.34 -5 4.68 -5 4 C-3.37373596 2.61767557 -1.7074998 1.28062485 0 0 Z " fill="#6688B8" transform="translate(130,119)"/>
<path d="M0 0 C0.99 0.33 1.98 0.66 3 1 C3 1.66 3 2.32 3 3 C3.99 3.33 4.98 3.66 6 4 C6 5.65 6 7.3 6 9 C3.69 7.02 1.38 5.04 -1 3 C-0.67 2.01 -0.34 1.02 0 0 Z " fill="#6389BD" transform="translate(249,140)"/>
<path d="M0 0 C0 0.66 0 1.32 0 2 C0.66 2 1.32 2 2 2 C2 2.66 2 3.32 2 4 C0.02 4.66 -1.96 5.32 -4 6 C-4 4.68 -4 3.36 -4 2 C-4.66 1.67 -5.32 1.34 -6 1 C-3 0 -3 0 0 0 Z " fill="#5983C7" transform="translate(174,97)"/>
<path d="M0 0 C3.66881155 0.70554068 6.70450534 2.27735506 10 4 C10 4.33 10 4.66 10 5 C7.69 5 5.38 5 3 5 C3 4.34 3 3.68 3 3 C2.01 3.33 1.02 3.66 0 4 C0 2.68 0 1.36 0 0 Z " fill="#527AB1" transform="translate(75,384)"/>
<path d="M0 0 C0 0.66 0 1.32 0 2 C-3.63 2.66 -7.26 3.32 -11 4 C-5.15789474 -1.84210526 -5.15789474 -1.84210526 0 0 Z " fill="#6A8DBE" transform="translate(70,242)"/>
<path d="M0 0 C0.99 0 1.98 0 3 0 C3 0.66 3 1.32 3 2 C3.66 2 4.32 2 5 2 C6.2890625 3.53125 6.2890625 3.53125 7.625 5.5 C8.07101562 6.1496875 8.51703125 6.799375 8.9765625 7.46875 C9.48316406 8.22671875 9.48316406 8.22671875 10 9 C9.34 9.66 8.68 10.32 8 11 C6.85204994 9.5433323 5.70670581 8.08461063 4.5625 6.625 C3.60537109 5.40683594 3.60537109 5.40683594 2.62890625 4.1640625 C1 2 1 2 0 0 Z " fill="#5F82B3" transform="translate(411,191)"/>
<path d="M0 0 C2.66735273 2.48952921 4.55746343 4.63408134 6 8 C5.01 8 4.02 8 3 8 C3 7.34 3 6.68 3 6 C1.35 6.33 -0.3 6.66 -2 7 C-1.34 4.69 -0.68 2.38 0 0 Z " fill="#6A8DC1" transform="translate(287,136)"/>
<path d="M0 0 C0.33 1.32 0.66 2.64 1 4 C-0.75 5.0625 -0.75 5.0625 -3 6 C-4.32 5.67 -5.64 5.34 -7 5 C-4.69 3.35 -2.38 1.7 0 0 Z " fill="#5F87BC" transform="translate(138,113)"/>
<path d="M0 0 C0.66 0 1.32 0 2 0 C2 0.66 2 1.32 2 2 C3.32 2.33 4.64 2.66 6 3 C6 3.66 6 4.32 6 5 C6.66 5.33 7.32 5.66 8 6 C6.1875 6.6875 6.1875 6.6875 4 7 C1.81974318 5.4657452 1.11209475 4.35666511 0.3125 1.8125 C0.209375 1.214375 0.10625 0.61625 0 0 Z " fill="#7496C3" transform="translate(69,378)"/>
<path d="M0 0 C1.32 0 2.64 0 4 0 C2.7874262 3.72433382 1.49140021 7.37802806 0 11 C-0.33 11 -0.66 11 -1 11 C-1.08912219 7.16774573 -0.87867729 3.73437848 0 0 Z " fill="#678EB6" transform="translate(51,295)"/>
<path d="M0 0 C0 0.33 0 0.66 0 1 C-3.96 1.66 -7.92 2.32 -12 3 C-12 2.34 -12 1.68 -12 1 C-8.00439392 -1.83022097 -4.57262677 -0.76210446 0 0 Z " fill="#7592C2" transform="translate(354,173)"/>
<path d="M0 0 C-0.33 1.32 -0.66 2.64 -1 4 C-1.61875 4.12375 -2.2375 4.2475 -2.875 4.375 C-5.19120832 4.87197356 -5.19120832 4.87197356 -7 7 C-7.99 6.34 -8.98 5.68 -10 5 C-8.71186658 4.16121545 -7.41936744 3.32913217 -6.125 2.5 C-5.40570313 2.0359375 -4.68640625 1.571875 -3.9453125 1.09375 C-2 0 -2 0 0 0 Z " fill="#6F8DBD" transform="translate(149,107)"/>
<path d="M0 0 C-0.33 0.99 -0.66 1.98 -1 3 C-4.80269732 4.6900877 -7.05272168 5.19873962 -11 4 C-9.73308493 3.32591692 -8.46129251 2.66099503 -7.1875 2 C-6.47980469 1.62875 -5.77210938 1.2575 -5.04296875 0.875 C-3 0 -3 0 0 0 Z " fill="#668BBA" transform="translate(160,102)"/>
<path d="M0 0 C-2.93828597 2.50298434 -5.17902761 3.46930939 -9 4 C-9.33 3.34 -9.66 2.68 -10 2 C-3.375 -1.125 -3.375 -1.125 0 0 Z " fill="#628CBD" transform="translate(444,412)"/>
<path d="M0 0 C0.99 0 1.98 0 3 0 C3.33 1.98 3.66 3.96 4 6 C3.34 6 2.68 6 2 6 C2 6.66 2 7.32 2 8 C1.34 8 0.68 8 0 8 C0 5.36 0 2.72 0 0 Z " fill="#507BB7" transform="translate(123,217)"/>
<path d="M0 0 C2.21399303 3.79541663 3.00980198 7.75629421 4 12 C3.01 11.67 2.02 11.34 1 11 C-0.47666292 7.50970582 -0.07164685 3.72563614 0 0 Z " fill="#5C81B1" transform="translate(48,341)"/>
<path d="M0 0 C-7.5 5 -7.5 5 -11 5 C-11 4.34 -11 3.68 -11 3 C-10.34 3 -9.68 3 -9 3 C-9 2.34 -9 1.68 -9 1 C-5.92677456 0.08941469 -3.19902639 -0.08886184 0 0 Z " fill="#7899C3" transform="translate(88,268)"/>
<path d="M0 0 C4.8 2.46153846 4.8 2.46153846 5.8125 5.1875 C5.874375 5.785625 5.93625 6.38375 6 7 C6.66 7 7.32 7 8 7 C7.67 7.66 7.34 8.32 7 9 C1.21538462 4.56923077 1.21538462 4.56923077 0.125 1.6875 C0.08375 1.130625 0.0425 0.57375 0 0 Z " fill="#6F94BD" transform="translate(438,174)"/>
<path d="M0 0 C1 2 1 2 0.3125 5.0625 C-1 8 -1 8 -3.125 8.875 C-3.74375 8.91625 -4.3625 8.9575 -5 9 C-3.7508258 5.54074837 -2.32472205 2.85306797 0 0 Z " fill="#688CBF" transform="translate(113,137)"/>
<path d="M0 0 C3.63 0 7.26 0 11 0 C11 0.99 11 1.98 11 3 C6.78121808 3.19622241 3.82989106 2.80230168 0 1 C0 0.67 0 0.34 0 0 Z " fill="#4872B2" transform="translate(205,124)"/>
<path d="M0 0 C3.71888239 0.50712033 6.73454239 1.11608215 10 3 C6.18510326 4.46726798 3.70988378 3.43336419 0 2 C0 1.34 0 0.68 0 0 Z " fill="#7999C3" transform="translate(389,143)"/>
<path d="M0 0 C1.32 1.32 2.64 2.64 4 4 C2.515 6.475 2.515 6.475 1 9 C0.34 8.34 -0.32 7.68 -1 7 C-0.625 3.375 -0.625 3.375 0 0 Z " fill="#5378B7" transform="translate(89,405)"/>
<path d="M0 0 C0.66 0 1.32 0 2 0 C2 0.66 2 1.32 2 2 C2.9590625 2.3403125 2.9590625 2.3403125 3.9375 2.6875 C6 4 6 4 6.75 6.625 C6.8325 7.40875 6.915 8.1925 7 9 C4.03595495 6.19195732 1.55500981 3.81684226 0 0 Z " fill="#85A0C6" transform="translate(32,384)"/>
<path d="M0 0 C1.98 0.99 3.96 1.98 6 3 C5.01 3.99 4.02 4.98 3 6 C2.01 5.34 1.02 4.68 0 4 C0 2.68 0 1.36 0 0 Z " fill="#6085C4" transform="translate(447,297)"/>
<path d="M0 0 C0 1.98 0 3.96 0 6 C-0.66 6 -1.32 6 -2 6 C-2.33 6.66 -2.66 7.32 -3 8 C-3.33 5.69 -3.66 3.38 -4 1 C-1 0 -1 0 0 0 Z " fill="#4172B8" transform="translate(278,176)"/>
<path d="M0 0 C0.33 0.99 0.66 1.98 1 3 C1.66 3.33 2.32 3.66 3 4 C0.36 4.66 -2.28 5.32 -5 6 C-3.35 4.02 -1.7 2.04 0 0 Z " fill="#5E88BE" transform="translate(121,128)"/>
<path d="M0 0 C-5.41538462 4.06153846 -5.41538462 4.06153846 -8.375 3.75 C-8.91125 3.5025 -9.4475 3.255 -10 3 C-9.01 3 -8.02 3 -7 3 C-6.67 2.01 -6.34 1.02 -6 0 C-3.50907189 -1.24546405 -2.58919267 -0.7767578 0 0 Z " fill="#EBB07E" transform="translate(363,392)"/>
<path d="M0 0 C1.98 0.99 1.98 0.99 4 2 C4 2.66 4 3.32 4 4 C4.66 4 5.32 4 6 4 C5.67 5.32 5.34 6.64 5 8 C4.16382818 6.8562364 3.33113541 5.70992861 2.5 4.5625 C2.0359375 3.92441406 1.571875 3.28632813 1.09375 2.62890625 C0 1 0 1 0 0 Z " fill="#EBA776" transform="translate(107,375)"/>
<path d="M0 0 C0.66 0 1.32 0 2 0 C2.80967438 2.91482778 3.21845993 4.46113217 2.0625 7.3125 C1.5365625 8.1478125 1.5365625 8.1478125 1 9 C-0.4783226 6.04335481 -0.06032783 3.25770263 0 0 Z " fill="#5483BF" transform="translate(26,368)"/>
<path d="M0 0 C1.98 0.99 1.98 0.99 4 2 C3.67 3.98 3.34 5.96 3 8 C0.37613513 4.93882432 0 4.26826873 0 0 Z " fill="#EDA66C" transform="translate(104,366)"/>
<path d="M0 0 C0.928125 0.20625 1.85625 0.4125 2.8125 0.625 C1.125 2.25 1.125 2.25 -1.1875 3.625 C-3.9375 2.8125 -3.9375 2.8125 -6.1875 1.625 C-3.1875 -0.375 -3.1875 -0.375 0 0 Z " fill="#6288C0" transform="translate(336.1875,144.375)"/>
<path d="M0 0 C2.64 1.65 5.28 3.3 8 5 C7.01 5.66 6.02 6.32 5 7 C4.01 6.34 3.02 5.68 2 5 C2 4.34 2 3.68 2 3 C1.34 3 0.68 3 0 3 C0 2.01 0 1.02 0 0 Z " fill="#5F8ABC" transform="translate(259,110)"/>
<path d="M0 0 C0.99 0.33 1.98 0.66 3 1 C1.8125 3.5 1.8125 3.5 0 6 C-2.6875 6.3125 -2.6875 6.3125 -5 6 C-4.01 5.67 -3.02 5.34 -2 5 C-2 4.34 -2 3.68 -2 3 C-1.34 3 -0.68 3 0 3 C0 2.01 0 1.02 0 0 Z " fill="#4471B3" transform="translate(459,396)"/>
<path d="M0 0 C-0.33 1.32 -0.66 2.64 -1 4 C-1.99 4 -2.98 4 -4 4 C-4.66 3.34 -5.32 2.68 -6 2 C-2.25 0 -2.25 0 0 0 Z " fill="#5D8ABF" transform="translate(430,383)"/>
<path d="M0 0 C0.66 0.33 1.32 0.66 2 1 C1.44855089 5.08072342 1.08669204 5.91330796 -2 9 C-1.34 6.03 -0.68 3.06 0 0 Z " fill="#E89B66" transform="translate(377,368)"/>
<path d="M0 0 C0.33 0 0.66 0 1 0 C1.28875 1.093125 1.5775 2.18625 1.875 3.3125 C2.81893204 7.04013845 2.81893204 7.04013845 5 10 C4.01 10 3.02 10 2 10 C-0.4294516 6.3558226 -0.16179575 4.28758728 0 0 Z " fill="#758DB6" transform="translate(399,305)"/>
<path d="M0 0 C0.99 0.33 1.98 0.66 3 1 C4.1875 4.0625 4.1875 4.0625 5 7 C4.01 7 3.02 7 2 7 C2 5.35 2 3.7 2 2 C1.01 1.67 0.02 1.34 -1 1 C-0.67 0.67 -0.34 0.34 0 0 Z " fill="#6784BF" transform="translate(293,147)"/>
</svg>
